G04 MADE WITH FRITZING*
G04 WWW.FRITZING.ORG*
G04 DOUBLE SIDED*
G04 HOLES PLATED*
G04 CONTOUR ON CENTER OF CONTOUR VECTOR*
%ASAXBY*%
%FSLAX23Y23*%
%MOIN*%
%OFA0B0*%
%SFA1.0B1.0*%
%ADD10C,0.060000*%
%ADD11C,0.078000*%
%ADD12C,0.079370*%
%ADD13R,0.060028X0.060014*%
%ADD14R,0.060028X0.060000*%
%ADD15R,0.080000X0.080000*%
%ADD16R,0.078000X0.078000*%
%ADD17C,0.024000*%
%LNCOPPER0*%
G90*
G70*
G54D10*
X3874Y459D03*
X3775Y459D03*
X3675Y459D03*
X3576Y459D03*
X3476Y459D03*
X3376Y459D03*
X3277Y459D03*
X3177Y459D03*
X3078Y459D03*
X2978Y459D03*
X2879Y459D03*
X2779Y459D03*
X2679Y459D03*
X2580Y459D03*
X2480Y459D03*
X2480Y1353D03*
X2580Y1353D03*
X2679Y1353D03*
X2779Y1353D03*
X2879Y1353D03*
X2978Y1353D03*
X3078Y1353D03*
X3177Y1353D03*
X3277Y1353D03*
X3376Y1353D03*
X3476Y1353D03*
X3576Y1353D03*
X3675Y1353D03*
X3775Y1353D03*
X3874Y1353D03*
G54D11*
X176Y1346D03*
X175Y559D03*
X1947Y1346D03*
X1947Y559D03*
G54D12*
X3575Y259D03*
X3425Y269D03*
X3275Y259D03*
X3125Y269D03*
G54D11*
X2525Y249D03*
X2375Y259D03*
X2225Y249D03*
X2075Y259D03*
X400Y234D03*
X250Y234D03*
X1575Y259D03*
X1425Y269D03*
X1275Y259D03*
X1125Y269D03*
G54D13*
X3775Y459D03*
X3376Y459D03*
G54D14*
X3078Y1353D03*
X3775Y1353D03*
G54D15*
X176Y559D03*
G54D16*
X176Y1346D03*
X1947Y1346D03*
X1947Y559D03*
G54D17*
X179Y540D02*
X246Y252D01*
D02*
X179Y1328D02*
X396Y253D01*
D02*
X3416Y286D02*
X3375Y359D01*
D02*
X3375Y359D02*
X2275Y359D01*
D02*
X2275Y359D02*
X2362Y272D01*
D02*
X2679Y1339D02*
X2674Y1258D01*
D02*
X2674Y1258D02*
X2275Y359D01*
D02*
X3575Y239D02*
X3573Y162D01*
D02*
X3573Y162D02*
X2776Y162D01*
D02*
X2776Y162D02*
X2568Y240D01*
D02*
X2568Y240D02*
X2544Y245D01*
D02*
X1436Y253D02*
X1572Y60D01*
D02*
X1572Y60D02*
X1974Y359D01*
D02*
X1974Y359D02*
X2424Y1416D01*
D02*
X2424Y1416D02*
X3375Y1462D01*
D02*
X3375Y1462D02*
X3376Y1367D01*
D02*
X2230Y230D02*
X2273Y60D01*
D02*
X2273Y60D02*
X3675Y60D01*
D02*
X3675Y60D02*
X3675Y359D01*
D02*
X3477Y359D02*
X3476Y445D01*
D02*
X3675Y359D02*
X3477Y359D01*
D02*
X1575Y278D02*
X1572Y461D01*
D02*
X1572Y461D02*
X1776Y461D01*
D02*
X1776Y461D02*
X1930Y549D01*
G04 End of Copper0*
M02*