; NON-PLATED HOLES START AT T1
; THROUGH (PLATED) HOLES START AT T100
M48
INCH
T100C0.039370
T101C0.038000
T102C0.028000
%
T100
X034251Y002688
X035751Y002588
X031251Y002688
X032751Y002588
T101
X022251Y002488
X001751Y005588
X001756Y013462
X019467Y005588
X023751Y002588
X015751Y002588
X002501Y002338
X012751Y002588
X004001Y002338
X019468Y013463
X025251Y002488
X020751Y002588
X014251Y002688
X011251Y002688
T102
X038743Y013526
X029781Y013526
X025798Y013526
X033764Y013526
X026794Y004588
X032769Y004588
X027790Y004588
X034760Y004588
X035756Y013526
X031773Y013526
X028786Y013526
X029781Y004588
X031773Y004588
X036751Y004588
X035756Y004588
X028786Y004588
X033764Y004588
X034760Y013526
X030777Y013526
X036751Y013526
X026794Y013526
X025798Y004588
X037747Y013526
X030777Y004588
X037747Y004588
X024803Y004588
X024803Y013526
X032769Y013526
X027790Y013526
X038743Y004588
T00
M30
